<?xml version="1.0" encoding="utf-8"?>
<!-- Generator: Adobe Illustrator 28.1.0, SVG Export Plug-In . SVG Version: 6.00 Build 0)  -->
<svg version="1.1" id="Calque_1" xmlns="http://www.w3.org/2000/svg" xmlns:xlink="http://www.w3.org/1999/xlink" x="0px" y="0px"
	 viewBox="0 0 100 125" style="enable-background:new 0 0 100 125;" xml:space="preserve">
<style type="text/css">
	.st0{fill:#5DA16D;}
</style>
<path class="st0" d="M50,6.6C26,6.6,6.6,26,6.6,50S26,93.4,50,93.4S93.4,74,93.4,50S74,6.6,50,6.6z M53.8,77.5
	c0,2.1-1.7,3.8-3.8,3.8s-3.8-1.7-3.8-3.8V44.3c0-2.1,1.7-3.8,3.8-3.8s3.8,1.7,3.8,3.8V77.5z M56.8,27.6c0,3.7-3,6.8-6.8,6.8
	s-6.8-3-6.8-6.8v-0.3c0-3.7,3-6.8,6.8-6.8s6.8,3,6.8,6.8V27.6z"/>
</svg>
