<?xml version="1.0" encoding="utf-8"?>
<!-- Generator: Adobe Illustrator 28.1.0, SVG Export Plug-In . SVG Version: 6.00 Build 0)  -->
<svg version="1.1" id="Calque_1" xmlns="http://www.w3.org/2000/svg" xmlns:xlink="http://www.w3.org/1999/xlink" x="0px" y="0px"
	 viewBox="0 0 846.7 1058.3" style="enable-background:new 0 0 846.7 1058.3;" xml:space="preserve">
<style type="text/css">
	.st0{fill-rule:evenodd;clip-rule:evenodd;fill:#5DA16D;}
</style>
<g>
	<path class="st0" d="M423.3,36.8c213.5,0,386.5,173.1,386.5,386.5s-173,386.5-386.5,386.5S36.8,636.8,36.8,423.3
		S209.9,36.8,423.3,36.8L423.3,36.8z M425.7,286.1v143.1h156.1c16.6,0,30,13.4,30,30v22c0,13.6-11,24.6-24.6,24.6H387.4
		c-21.2,0-38.3-17.1-38.3-38.3V289.8c0-18.6,15.1-33.6,33.6-33.6h12.9C412.2,256.1,425.7,269.5,425.7,286.1z"/>
</g>
</svg>
