<?xml version="1.0" encoding="utf-8"?>
<!-- Generator: Adobe Illustrator 28.1.0, SVG Export Plug-In . SVG Version: 6.00 Build 0)  -->
<svg version="1.1" xmlns="http://www.w3.org/2000/svg" xmlns:xlink="http://www.w3.org/1999/xlink" x="0px" y="0px"
	 viewBox="0 0 100 125" style="enable-background:new 0 0 100 125;" xml:space="preserve">
<style type="text/css">
	.st0{fill:#5DA16D;}
</style>
<g id="Calque_2">
</g>
<g id="Calque_1">
	<path class="st0" d="M50,2.5c-17.8,0-32.2,14.4-32.2,32.2c0,12.7,16.3,42.7,25.7,59c2.9,5,10.1,5,13,0c9.4-16.3,25.7-46.4,25.7-59
		C82.2,16.9,67.8,2.5,50,2.5z M50.7,66.9c-2.7,0-4.9-2.2-4.9-4.9c0-2.7,2.2-4.9,4.9-4.9s4.9,2.2,4.9,4.9
		C55.6,64.7,53.4,66.9,50.7,66.9z M63,40.8c-2,2.7-4,4.1-5.5,5.2c-1.7,1.2-2.5,1.8-2.8,4.7c-0.1,1.1-1,1.9-2.1,1.9h-3.7
		c-0.6,0-1.2-0.3-1.6-0.7c-0.4-0.4-0.6-1-0.6-1.6c0.5-6.4,3-8.6,6.1-10.9c1.3-0.9,2.5-1.7,3.7-3.4c1.4-1.6,1.5-4,0.5-6
		c-0.7-1.4-2.5-3.7-6.8-3.7c-5.6,0-7.3,3.4-7.8,6.3c-0.2,1-1.1,1.8-2.1,1.8h-3.8c-0.6,0-1.2-0.3-1.6-0.7c-0.4-0.5-0.6-1.1-0.5-1.7
		c1-6.6,5.6-13.7,15.8-13.7c6.2,0,11.4,3,13.9,8C66.5,31.1,66.1,36.7,63,40.8z"/>
</g>
</svg>
