<?xml version="1.0" encoding="utf-8"?>
<!-- Generator: Adobe Illustrator 28.0.0, SVG Export Plug-In . SVG Version: 6.00 Build 0)  -->
<svg version="1.1" id="Calque_1" xmlns="http://www.w3.org/2000/svg" xmlns:xlink="http://www.w3.org/1999/xlink" x="0px" y="0px"
	 viewBox="0 0 131.9 136.79" style="enable-background:new 0 0 131.9 136.79;" xml:space="preserve">
<style type="text/css">
	.st0{fill:none;}
</style>
<g>
	<path d="M104.94,15.05l-0.73,0.68C93.5,25.77,90.8,39.12,87.94,53.26c-4.03,19.96-8.21,40.59-37.04,53.86
		c-14.69,4.79-25.37,0.04-29.08-6.41c-2.47-4.31-1.63-8.83,2.32-12.42c4.05-2.88,11.83-2.36,19.37-1.85
		c9.92,0.66,20.18,1.34,27.38-4.64c6.65-5.27,6.57-13.15,6.5-20.78c-0.05-5.08-0.11-10.34,1.91-14.65l0.42-0.91l-9.4-4.4l-0.42,0.91
		c-3.02,6.45-2.95,13.2-2.89,19.15c0.06,6.48-0.03,10.55-2.6,12.57l-0.11,0.09c-4.03,3.37-12.2,2.83-20.15,2.3
		c-9.5-0.63-19.32-1.29-26.43,4.04l-0.29,0.24c-7.78,6.85-9.59,16.86-4.62,25.51c4.26,7.41,13.8,13.56,26.68,13.56
		c4.58,0,9.59-0.78,14.93-2.56l0.51-0.2c33.88-15.46,38.81-39.85,43.16-61.36c2.63-13,4.9-24.23,13.19-32.01l0.73-0.68L104.94,15.05
		z"/>
	<path id="SVGID_x5F_1_x5F_" class="st0" d="M61.68,128.83c0,0,29.07-13.6,41.47-42.4s7.6-37.47,19.33-54.53"/>
	<text>	<textPath  xlink:href="#SVGID_x5F_1_x5F_" startOffset="0.9765%">
<tspan  style="font-family:'DMB'; font-size:9.9606px;">DESIGN MUSEUM </tspan>	</textPath>
</text>
	<path id="SVGID_x5F_00000181776731177361920140000015836513963789511599_x5F_" class="st0" d="M96.12,118.43
		c0,0,23.67-21.67,26.88-52.87s-3.96-38.02,2.13-57.82"/>
	<text>	<textPath  xlink:href="#SVGID_x5F_00000181776731177361920140000015836513963789511599_x5F_" startOffset="5.1758%">
<tspan  style="font-family:'DMB'; font-size:9.9606px;">BRUSSELS</tspan><tspan  style="font-family:'MyriadPro-Regular'; font-size:12px;"> </tspan>	</textPath>
</text>
</g>
</svg>
