<?xml version="1.0" encoding="utf-8"?>
<!-- Generator: Adobe Illustrator 28.0.0, SVG Export Plug-In . SVG Version: 6.00 Build 0)  -->
<svg version="1.1" xmlns="http://www.w3.org/2000/svg" xmlns:xlink="http://www.w3.org/1999/xlink" x="0px" y="0px"
	 viewBox="0 0 131.9 136.79" style="enable-background:new 0 0 131.9 136.79;" xml:space="preserve">
<style type="text/css">
	.st0{display:none;}
	.st1{display:inline;}
	.st2{fill:none;}
	.st3{fill:#FFFFFF;}
	.st4{fill:#FFFFFF;stroke:#FFFFFF;stroke-width:0.9437;stroke-miterlimit:10;}
</style>
<g id="Calque_1" class="st0">
	<g class="st1">
		<path d="M102.79,13.32l-0.73,0.68C91.34,24.05,88.65,37.4,85.79,51.53c-4.03,19.96-8.21,40.59-37.04,53.86
			c-14.69,4.79-25.37,0.04-29.08-6.41c-2.47-4.31-1.63-8.83,2.32-12.42c4.05-2.88,11.83-2.36,19.37-1.85
			c9.92,0.66,20.18,1.34,27.38-4.64c6.65-5.27,6.57-13.15,6.5-20.78c-0.05-5.08-0.11-10.34,1.91-14.65l0.42-0.91l-9.4-4.4
			l-0.42,0.91c-3.02,6.45-2.95,13.2-2.89,19.15c0.06,6.48-0.03,10.55-2.6,12.57l-0.11,0.09c-4.03,3.37-12.2,2.83-20.15,2.3
			c-9.5-0.63-19.32-1.29-26.43,4.04l-0.29,0.24c-7.78,6.85-9.59,16.86-4.62,25.51c4.26,7.41,13.8,13.56,26.68,13.56
			c4.58,0,9.59-0.78,14.93-2.56l0.51-0.2C86.68,99.48,91.61,75.1,95.96,53.58c2.63-13,4.9-24.23,13.19-32.01l0.73-0.68L102.79,13.32
			z"/>
		<path id="SVGID_x5F_1_x5F_" class="st2" d="M59.52,127.1c0,0,29.07-13.6,41.47-42.4s7.6-37.47,19.33-54.53"/>
		<text>		<textPath  xlink:href="#SVGID_x5F_1_x5F_" startOffset="0.9765%">
<tspan  style="font-family:'DMB'; font-size:9.9606px;">DESIGN MUSEUM </tspan>		</textPath>
</text>
		<path id="SVGID_x5F_00000171709194278791378440000004727475271820068992_x5F_" class="st2" d="M93.96,116.7
			c0,0,23.67-21.67,26.88-52.87s-3.96-38.02,2.13-57.82"/>
		<text>		<textPath  xlink:href="#SVGID_x5F_00000171709194278791378440000004727475271820068992_x5F_" startOffset="5.176%">
<tspan  style="font-family:'DMB'; font-size:9.9606px;">BRUSSELS</tspan><tspan  style="font-family:'MyriadPro-Regular'; font-size:12px;"> </tspan>		</textPath>
</text>
	</g>
</g>
<g id="Calque_2">
	<g>
		<g>
			<path class="st3" d="M88.95,87.29V58.23c0-1.17-0.46-1.98-1.45-2.54c-0.98-0.56-1.95-0.56-2.95,0c-0.22,0.14-0.43,0.32-0.61,0.53
				l-0.13,0.15l-0.14,0.06l-0.06,0.07L71.45,68.65l-5.15-5.18c-0.07-0.06-0.13-0.13-0.18-0.21l-7.2-7.2l-0.19-0.14
				c-0.13-0.1-0.24-0.18-0.34-0.25c-0.47-0.24-0.95-0.36-1.47-0.36c-0.53,0-1,0.12-1.43,0.37c-0.14,0.07-0.23,0.13-0.32,0.21
				c-0.14,0.12-0.26,0.21-0.37,0.29c-0.53,0.58-0.79,1.25-0.79,2.04v21.82c0,1.13,0.47,1.92,1.48,2.48
				c0.46,0.29,0.92,0.43,1.43,0.43c0.53,0,1.01-0.14,1.47-0.42c0.95-0.54,1.43-1.26,1.49-2.26l-0.05-0.05v-0.29
				c0-0.1,0.02-0.21,0.06-0.3V65.3l8.16,8.21v-0.05l1.21,1.21c0.27,0.27,0.53,0.48,0.79,0.65c0.41,0.23,0.87,0.35,1.41,0.35
				c0.53,0,1.02-0.12,1.48-0.36c0.25-0.16,0.49-0.35,0.72-0.58l9.48-9.48L83.1,87.18c-0.02,0.06-0.03,0.12-0.04,0.15
				c0.01,1.15,0.48,1.94,1.48,2.5c1,0.56,1.97,0.56,2.95,0C88.48,89.27,88.95,88.46,88.95,87.29z"/>
			<path class="st3" d="M121.45,72.76c0-1.14-0.47-1.95-1.49-2.55c-0.45-0.24-0.94-0.36-1.48-0.36h-4.33V58.03
				c-0.1-1.05-0.59-1.82-1.49-2.35c-0.38-0.2-0.79-0.33-1.22-0.36H96.66c-0.53,0-1,0.12-1.43,0.37c-0.98,0.54-1.45,1.32-1.48,2.45
				l0,0.15v30.04c0,0.46,0.14,1.13,1.4,1.64c0.38,0.16,0.81,0.24,1.28,0.24h0.11l0.11,0.04c0.03,0.01,0.05,0.02,0.07,0.02h21.76
				c0.52,0,1.01-0.14,1.47-0.42c1.02-0.58,1.49-1.37,1.49-2.49c0-0.03,0-0.12-0.04-0.32l-0.05-0.23l0.09-0.18l-0.02-13.22
				l-0.07-0.22l0.07-0.22C121.44,72.91,121.45,72.85,121.45,72.76z M99.62,61.14h8.65v8.71h-8.65V61.14z M115.57,84.38H99.62v-8.71
				h15.95V84.38z"/>
		</g>
		<path class="st4" d="M29.57,88.41l-0.1,0.03c-9.35,3.11-16.44-0.4-19.07-4.98c-2.23-3.88-1.41-8.37,2.08-11.45l0.12-0.1
			c3.2-2.4,7.75-2.1,12.15-1.8c3.83,0.25,7.78,0.52,9.83-1.19l0.05-0.04c1.38-1.09,1.43-3.1,1.4-6.3c-0.03-2.76-0.06-5.89,1.32-8.83
			l3.58,1.68c-1,2.13-0.97,4.66-0.95,7.12c0.03,3.48,0.07,7.09-2.89,9.43c-3.26,2.71-8.01,2.39-12.6,2.09
			c-3.65-0.24-7.41-0.49-9.46,0.98c-2.03,1.83-2.48,4.24-1.21,6.46c1.85,3.22,7.11,5.59,14.3,3.23
			c13.85-6.36,15.84-16.22,17.77-25.76c1.33-6.59,2.59-12.82,7.54-17.45l2.7,2.88c-4.02,3.77-5.11,9.14-6.37,15.35
			c-2.03,10.04-4.33,21.42-20.1,28.62L29.57,88.41z"/>
	</g>
</g>
</svg>
